<svg width="16" height="16" viewBox="0 0 16 16" fill="none" xmlns="http://www.w3.org/2000/svg">
<path fill-rule="evenodd" clip-rule="evenodd" d="M1.3335 8.00773C1.3335 8.37587 1.63198 8.67433 2.00016 8.67433H12.6507C12.5936 8.7732 12.5228 8.86627 12.4382 8.9508L8.19563 13.1935C7.93523 13.4538 7.93523 13.8759 8.19563 14.1363C8.45596 14.3966 8.8781 14.3966 9.13843 14.1363L14.7953 8.4794C15.0556 8.21907 15.0556 7.79693 14.7953 7.5366L9.1383 1.87965C8.87796 1.6193 8.45583 1.6193 8.1955 1.87965C7.93516 2.14 7.93516 2.56211 8.1955 2.82246L12.4382 7.0652C12.5226 7.1496 12.5933 7.2424 12.6504 7.34107H2.00016C1.63198 7.341 1.3335 7.63953 1.3335 8.00773Z" fill="black"/>
</svg>
