<svg width="14" height="13" viewBox="0 0 14 13" fill="none" xmlns="http://www.w3.org/2000/svg">
<path d="M4.2 7.90002C4.76 8.32002 5.88 9.30002 7 9.30002C8.12 9.30002 9.24 8.32002 9.8 7.90002C12.6 5.94002 13.44 5.24003 14 4.82002V10.7C14 11.4731 13.3731 12.1 12.6 12.1H1.4C0.626937 12.1 0 11.4731 0 10.7V4.82002C0.56 5.24003 1.4 5.94002 4.2 7.90002Z" fill="white"/>
<path d="M1.4 0.900024H12.6C13.3731 0.900024 14 1.52696 14 2.30002V3.14002C12.88 3.98002 13.02 3.98002 8.96 6.92002C8.54 7.06002 7.7 7.90002 7 7.90002C6.3 7.90002 5.46 7.06002 5.04 6.78002C0.98 3.84002 1.12 3.84002 0 3.00002V2.30002C0 1.52696 0.626937 0.900024 1.4 0.900024Z" fill="white"/>
</svg>
