<svg width="14" height="14" viewBox="0 0 14 14" fill="none" xmlns="http://www.w3.org/2000/svg">
<path d="M13.6005 9.89272L10.538 8.58022C10.4072 8.52446 10.2618 8.51272 10.1237 8.54674C9.98562 8.58077 9.86232 8.65873 9.77238 8.76889L8.41613 10.4259C6.28762 9.42235 4.57466 7.70939 3.57109 5.58088L5.22812 4.22463C5.33851 4.13486 5.41663 4.01157 5.45067 3.87342C5.48472 3.73527 5.47283 3.58979 5.4168 3.45901L4.1043 0.39651C4.0428 0.255528 3.93405 0.140421 3.79678 0.0710369C3.65951 0.00165297 3.50233 -0.0176587 3.35234 0.0164318L0.508594 0.672682C0.363992 0.706073 0.234977 0.787492 0.142607 0.90365C0.0502374 1.01981 -3.33104e-05 1.16384 1.65599e-08 1.31225C1.65599e-08 8.32592 5.68477 13.9998 12.6875 13.9998C12.836 13.9998 12.9801 13.9496 13.0963 13.8572C13.2125 13.7649 13.2939 13.6358 13.3273 13.4912L13.9836 10.6474C14.0175 10.4967 13.9977 10.3389 13.9278 10.2011C13.8579 10.0634 13.7422 9.95434 13.6005 9.89272Z" fill="white"/>
</svg>
